<svg xmlns="http://www.w3.org/2000/svg" viewBox="0 0 20 20" id="chefs-hat">
  <g fill="currentColor" fill-rule="evenodd">
    <path d="M18.8516 13.8424c-1.342 1.342-3.4519 1.4183-4.9014.2608l-2.9293 2.9294-1.16-1.16 2.32-2.3206-1.16-1.16-2.3198 2.3207-1.1608-1.1607 2.9006-2.8998-1.1599-1.16-2.9006 2.8999-1.16-1.16 2.32-2.3198-1.16-1.1608-2.3199 2.3207-1.1599-1.16 2.9294-2.93c-1.1575-1.4487-1.082-3.5586.2608-4.9006 1.4413-1.4421 3.7784-1.4421 5.2205 0 .37.37.6415.7998.8211 1.2575 1.5299-.744 3.419-.498 4.689.7728 1.2698 1.2698 1.5159 3.159.7718 4.688.4586.1805.8884.452 1.2584.822 1.4413 1.4413 1.4413 3.7792 0 5.2205zM8.1211 19.9332L0 11.8121l1.7399-1.7399 8.1211 8.1203z"/>
  </g>
</svg>
