<svg xmlns="http://www.w3.org/2000/svg" viewBox="0 0 20 20" id="cutlery">
    <path fill="currentColor" fill-rule="evenodd" d="M15.1446 17.3678l-1.1217 1.1332-4.8641-4.9142-4.8642 4.9142-1.1216-1.1332 4.8641-4.9142L0 4.3347l1.1216-1.134.33.3334c.8948-.085 2.39.1483 4.1574 1.9338C7.3764 7.2534 7.6072 8.764 7.5231 9.668l1.6357 1.6525 1.9188-1.9378c-.6671-.985-.652-1.9394-.441-2.6085l-.1714-.1731 5.0474-5.1001 1.1225 1.1331-4.4184 4.4638c-.084.1499-.249.5562.0167 1.1164l4.9625-5.0136 1.1216 1.134-4.9625 5.0135c.5545.2685.9575.101 1.105.0169l4.4184-4.4638L20 6.0345l-5.0482 5.1-.1713-.173c-.6624.2123-1.6071.2275-2.5812-.4456l-1.9189 1.9377 4.8642 4.9142z"></path>
  </svg>